<svg width="160" height="120" viewBox="0 0 160 120" xmlns="http://www.w3.org/2000/svg">
  <rect width="160" height="120" fill="none"/>
  <g fill="#F6A6A1" shape-rendering="crispEdges">
    <rect x="56" y="32" width="8" height="8"/>
    <rect x="64" y="24" width="8" height="8"/>
    <rect x="72" y="24" width="8" height="8"/>
    <rect x="80" y="24" width="8" height="8"/>
    <rect x="88" y="24" width="8" height="8"/>
    <rect x="96" y="32" width="8" height="8"/>
    <rect x="48" y="40" width="8" height="8"/>
    <rect x="104" y="40" width="8" height="8"/>
    <rect x="40" y="48" width="8" height="8"/>
    <rect x="112" y="48" width="8" height="8"/>
    <rect x="48" y="56" width="8" height="8"/>
    <rect x="104" y="56" width="8" height="8"/>
    <rect x="56" y="64" width="8" height="8"/>
    <rect x="96" y="64" width="8" height="8"/>
    <rect x="64" y="72" width="8" height="8"/>
    <rect x="88" y="72" width="8" height="8"/>
    <rect x="72" y="80" width="8" height="8"/>
    <rect x="80" y="80" width="8" height="8"/>
  </g>
</svg>


